# Blender v2.82 (sub 7) OBJ File: 'BASE_32.blend'
# www.blender.org
mtllib BASE_32.mtl
o Circle
v 0.000000 0.000000 -0.627200
v -0.122361 0.000000 -0.615149
v -0.240019 0.000000 -0.579457
v -0.348454 0.000000 -0.521498
v -0.443497 0.000000 -0.443497
v -0.521498 0.000000 -0.348454
v -0.579457 0.000000 -0.240019
v -0.615149 0.000000 -0.122361
v -0.627200 0.000000 -0.000000
v -0.615149 0.000000 0.122361
v -0.579457 0.000000 0.240019
v -0.521498 0.000000 0.348454
v -0.443497 0.000000 0.443497
v -0.348454 0.000000 0.521498
v -0.240019 0.000000 0.579457
v -0.122361 0.000000 0.615149
v 0.000000 0.000000 0.627200
v 0.122361 0.000000 0.615148
v 0.240019 0.000000 0.579457
v 0.348454 0.000000 0.521498
v 0.443498 0.000000 0.443497
v 0.521498 0.000000 0.348453
v 0.579457 0.000000 0.240019
v 0.615149 0.000000 0.122360
v 0.627200 0.000000 -0.000001
v 0.615148 0.000000 -0.122361
v 0.579457 0.000000 -0.240020
v 0.521497 0.000000 -0.348454
v 0.443497 0.000000 -0.443498
v 0.348453 0.000000 -0.521498
v 0.240018 0.000000 -0.579458
v 0.122360 0.000000 -0.615149
v -0.000000 0.127400 -0.576122
v -0.112396 0.127400 -0.565052
v -0.220472 0.127400 -0.532267
v -0.320076 0.127400 -0.479028
v -0.407380 0.127400 -0.407380
v -0.479028 0.127400 -0.320076
v -0.532267 0.127400 -0.220472
v -0.565052 0.127400 -0.112396
v -0.576122 0.127400 -0.000000
v -0.565052 0.127400 0.112396
v -0.532268 0.127400 0.220472
v -0.479028 0.127400 0.320076
v -0.407380 0.127400 0.407380
v -0.320076 0.127400 0.479028
v -0.220472 0.127400 0.532268
v -0.112396 0.127400 0.565052
v 0.000000 0.127400 0.576122
v 0.112396 0.127400 0.565052
v 0.220473 0.127400 0.532267
v 0.320077 0.127400 0.479028
v 0.407380 0.127400 0.407380
v 0.479028 0.127400 0.320076
v 0.532268 0.127400 0.220472
v 0.565052 0.127400 0.112395
v 0.576122 0.127400 -0.000001
v 0.565052 0.127400 -0.112396
v 0.532267 0.127400 -0.220473
v 0.479028 0.127400 -0.320077
v 0.407379 0.127400 -0.407380
v 0.320076 0.127400 -0.479029
v 0.220472 0.127400 -0.532268
v 0.112395 0.127400 -0.565052
v -0.000000 0.127400 -0.000000
v -0.000000 0.000000 -0.000000
v 0.535045 0.119900 -0.221624
v -0.321747 0.119900 0.481528
v -0.000000 0.119900 -0.579129
v 0.481528 0.119900 -0.321747
v -0.221623 0.119900 0.535046
v -0.112982 0.119900 -0.568001
v 0.409506 0.119900 -0.409507
v -0.112982 0.119900 0.568001
v -0.221623 0.119900 -0.535046
v 0.321746 0.119900 -0.481529
v 0.000000 0.119900 0.579129
v -0.321747 0.119900 -0.481528
v 0.221622 0.119900 -0.535046
v 0.112983 0.119900 0.568001
v -0.409506 0.119900 -0.409506
v 0.112982 0.119900 -0.568001
v 0.221623 0.119900 0.535045
v -0.481528 0.119900 -0.321747
v 0.321747 0.119900 0.481528
v -0.535046 0.119900 -0.221623
v 0.409506 0.119900 0.409506
v -0.568001 0.119900 -0.112983
v 0.481528 0.119900 0.321746
v -0.579129 0.119900 -0.000000
v 0.535046 0.119900 0.221623
v -0.568001 0.119900 0.112982
v 0.568001 0.119900 0.112982
v -0.535046 0.119900 0.221623
v 0.579129 0.119900 -0.000001
v -0.481528 0.119900 0.321747
v 0.568001 0.119900 -0.112983
v -0.409506 0.119900 0.409506
v 0.575837 0.009774 -0.238520
v -0.346277 0.009774 0.518240
v -0.000000 0.009774 -0.623281
v 0.518239 0.009774 -0.346277
v -0.238519 0.009774 0.575837
v -0.121596 0.009774 -0.611305
v 0.440726 0.009774 -0.440727
v -0.121596 0.009774 0.611305
v -0.238519 0.009774 -0.575837
v 0.346276 0.009774 -0.518240
v 0.000000 0.009774 0.623281
v -0.346277 0.009774 -0.518240
v 0.238519 0.009774 -0.575837
v 0.121596 0.009774 0.611305
v -0.440726 0.009774 -0.440726
v 0.121595 0.009774 -0.611305
v 0.238520 0.009774 0.575837
v -0.518240 0.009774 -0.346277
v 0.346277 0.009774 0.518239
v -0.575837 0.009774 -0.238519
v 0.440727 0.009774 0.440726
v -0.611305 0.009774 -0.121596
v 0.518240 0.009774 0.346276
v -0.623281 0.009774 -0.000000
v 0.575837 0.009774 0.238519
v -0.611305 0.009774 0.121596
v 0.611305 0.009774 0.121596
v -0.575837 0.009774 0.238519
v 0.623281 0.009774 -0.000001
v -0.518240 0.009774 0.346277
v 0.611305 0.009774 -0.121597
v -0.440726 0.009774 0.440726
vt 0.234944 0.521224
vt 0.184595 0.511209
vt 0.260612 0.260612
vt 0.286280 0.521224
vt 0.645315 0.656376
vt 0.645315 0.706502
vt 0.639571 0.706690
vt 0.639571 0.656248
vt 0.286280 0.000000
vt 0.336629 0.010015
vt 0.234944 0.000000
vt 0.530423 0.169561
vt 0.548469 0.125995
vt 0.760612 0.239388
vt 0.521224 0.215810
vt 0.874005 0.451531
vt 0.830439 0.469577
vt 0.913213 0.425333
vt 0.784190 0.478776
vt 0.737034 0.478776
vt 0.647219 0.027245
vt 0.690785 0.009200
vt 0.608011 0.053443
vt 0.690785 0.469577
vt 0.647219 0.451531
vt 0.737034 0.000000
vt 0.784190 0.000000
vt 0.972755 0.125995
vt 0.990800 0.169561
vt 0.946557 0.086787
vt 0.608011 0.425333
vt 0.574667 0.391989
vt 0.830439 0.009200
vt 0.874005 0.027245
vt 1.000000 0.215811
vt 1.000000 0.262966
vt 0.548469 0.352781
vt 0.530423 0.309215
vt 0.913213 0.053443
vt 0.990800 0.309215
vt 0.972755 0.352781
vt 0.521224 0.262966
vt 0.137166 0.491563
vt 0.094482 0.463042
vt 0.058182 0.426742
vt 0.029661 0.384058
vt 0.384058 0.029661
vt 0.426742 0.058181
vt 0.010015 0.336630
vt 0.000000 0.286280
vt 0.463042 0.094481
vt 0.491563 0.137166
vt 0.000000 0.234944
vt 0.010015 0.184594
vt 0.511209 0.184594
vt 0.521224 0.234944
vt 0.426742 0.463042
vt 0.384058 0.491563
vt 0.463042 0.426742
vt 0.029661 0.137166
vt 0.058181 0.094482
vt 0.521224 0.286280
vt 0.511209 0.336629
vt 0.336630 0.511208
vt 0.491563 0.384058
vt 0.184594 0.010015
vt 0.137166 0.029661
vt 0.574667 0.086787
vt 0.946557 0.391989
vt 0.094481 0.058181
vt 0.765279 0.803315
vt 0.772632 0.845972
vt 0.766969 0.846841
vt 0.759570 0.803915
vt 0.560399 0.939095
vt 0.573966 0.959167
vt 0.568514 0.960519
vt 0.554862 0.940321
vt 0.648399 0.608971
vt 0.642674 0.608545
vt 0.760752 0.756026
vt 0.755014 0.756329
vt 0.548613 0.910266
vt 0.543002 0.911311
vt 0.654446 0.566109
vt 0.648760 0.565414
vt 0.759223 0.705923
vt 0.753476 0.705911
vt 0.539061 0.873788
vt 0.533391 0.874604
vt 0.663227 0.529438
vt 0.657595 0.528512
vt 0.760752 0.654930
vt 0.755014 0.654598
vt 0.532111 0.831064
vt 0.526396 0.831611
vt 0.674402 0.500367
vt 0.668840 0.499258
vt 0.765279 0.605008
vt 0.759570 0.604362
vt 0.528028 0.783735
vt 0.522288 0.783984
vt 0.749272 0.493949
vt 0.753476 0.494898
vt 0.741330 0.513712
vt 0.737063 0.512861
vt 0.772632 0.558075
vt 0.766969 0.557134
vt 0.526971 0.733619
vt 0.521224 0.733553
vt 0.782526 0.515935
vt 0.776925 0.514729
vt 0.528979 0.682643
vt 0.523245 0.682257
vt 0.794582 0.480207
vt 0.789058 0.478776
vt 0.533975 0.632766
vt 0.528273 0.632066
vt 0.674402 0.895691
vt 0.687542 0.931034
vt 0.682063 0.932633
vt 0.668840 0.897067
vt 0.541769 0.585905
vt 0.536115 0.584910
vt 0.663227 0.853872
vt 0.657595 0.854985
vt 0.552059 0.543860
vt 0.546470 0.542601
vt 0.654446 0.807185
vt 0.648760 0.808005
vt 0.564451 0.508246
vt 0.558939 0.506764
vt 0.648399 0.757425
vt 0.642674 0.757932
vt 0.578468 0.480434
vt 0.573045 0.478776
vt 0.710037 0.704394
vt 0.714445 0.704250
vt 0.717294 0.751320
vt 0.712902 0.751709
vt 0.836437 0.836185
vt 0.840783 0.835518
vt 0.849929 0.869151
vt 0.845631 0.869993
vt 0.782526 0.882358
vt 0.861073 0.895695
vt 0.856833 0.896676
vt 0.722885 0.797315
vt 0.718521 0.797944
vt 0.630776 0.526092
vt 0.619322 0.559010
vt 0.615033 0.558044
vt 0.626547 0.524954
vt 0.731000 0.840469
vt 0.726679 0.841324
vt 0.609810 0.597874
vt 0.605472 0.597111
vt 0.741330 0.879124
vt 0.737062 0.880180
vt 0.602607 0.641190
vt 0.598231 0.640653
vt 0.753476 0.911794
vt 0.749272 0.913020
vt 0.597988 0.687293
vt 0.593588 0.686997
vt 0.861073 0.497428
vt 0.849929 0.530453
vt 0.845631 0.529527
vt 0.856833 0.496330
vt 0.596132 0.734412
vt 0.591722 0.734362
vt 0.840783 0.569405
vt 0.836437 0.568682
vt 0.597109 0.780736
vt 0.592705 0.780927
vt 0.833987 0.612786
vt 0.829606 0.612291
vt 0.687542 0.480013
vt 0.600883 0.824484
vt 0.596498 0.824904
vt 0.829802 0.658931
vt 0.825399 0.658676
vt 0.731001 0.540583
vt 0.726679 0.539873
vt 0.607308 0.863976
vt 0.602956 0.864602
vt 0.828389 0.706065
vt 0.823979 0.706056
vt 0.722885 0.574480
vt 0.718521 0.573946
vt 0.616137 0.897693
vt 0.611831 0.898495
vt 0.829802 0.752378
vt 0.825399 0.752610
vt 0.717295 0.614098
vt 0.712902 0.613771
vt 0.627031 0.924341
vt 0.622782 0.925282
vt 0.833987 0.796089
vt 0.829606 0.796549
vt 0.714445 0.657916
vt 0.710037 0.657818
vt 0.639571 0.942895
vt 0.635388 0.943932
vt 0.682063 0.478776
vt 0.776925 0.883456
vt 0.639571 0.499112
vn 0.4685 -0.5375 -0.7011
vn 0.5962 -0.5375 -0.5962
vn 0.0000 -1.0000 0.0000
vn 0.3227 -0.5375 -0.7790
vn 0.7718 0.3721 -0.5156
vn 0.8575 0.3721 -0.3552
vn 0.7790 -0.5375 -0.3227
vn 0.7011 -0.5375 -0.4685
vn -0.4685 -0.5375 0.7011
vn -0.5962 -0.5375 0.5962
vn -0.3227 -0.5375 0.7790
vn 0.5722 0.8122 0.1138
vn 0.5834 0.8122 0.0000
vn 0.0000 1.0000 0.0000
vn 0.5390 0.8122 0.2232
vn -0.4851 0.8122 0.3241
vn -0.4125 0.8122 0.4125
vn -0.5390 0.8122 0.2232
vn -0.3241 0.8122 0.4851
vn -0.2232 0.8122 0.5390
vn 0.4851 0.8122 -0.3241
vn 0.4125 0.8122 -0.4125
vn 0.5390 0.8122 -0.2232
vn -0.1138 0.8122 0.5722
vn 0.0000 0.8122 0.5834
vn 0.3241 0.8122 -0.4851
vn 0.2232 0.8122 -0.5390
vn -0.3241 0.8122 -0.4851
vn -0.4125 0.8122 -0.4125
vn -0.2232 0.8122 -0.5390
vn 0.1138 0.8122 0.5722
vn 0.2232 0.8122 0.5390
vn 0.1138 0.8122 -0.5722
vn 0.0000 0.8122 -0.5834
vn -0.4851 0.8122 -0.3241
vn -0.5390 0.8122 -0.2232
vn 0.3241 0.8122 0.4851
vn 0.4125 0.8122 0.4125
vn -0.1138 0.8122 -0.5722
vn -0.5722 0.8122 -0.1138
vn -0.5834 0.8122 0.0000
vn 0.4851 0.8122 0.3241
vn 0.8270 -0.5375 -0.1645
vn 0.8432 -0.5375 0.0000
vn -0.7011 -0.5375 0.4685
vn -0.7790 -0.5375 0.3227
vn 0.8270 -0.5375 0.1645
vn 0.7790 -0.5375 0.3227
vn -0.8270 -0.5375 0.1645
vn -0.8432 -0.5375 0.0000
vn 0.7011 -0.5375 0.4685
vn 0.5962 -0.5375 0.5962
vn -0.8270 -0.5375 -0.1645
vn -0.7790 -0.5375 -0.3227
vn -0.1645 -0.5375 -0.8270
vn 0.0000 -0.5375 -0.8432
vn -0.3227 -0.5375 -0.7790
vn 0.4685 -0.5375 0.7011
vn 0.3227 -0.5375 0.7790
vn -0.7011 -0.5375 -0.4685
vn -0.5962 -0.5375 -0.5962
vn 0.1645 -0.5375 -0.8270
vn -0.4685 -0.5375 -0.7011
vn -0.1645 -0.5375 0.8270
vn 0.0000 -0.5375 0.8432
vn 0.5722 0.8122 -0.1138
vn -0.5722 0.8122 0.1138
vn 0.1645 -0.5375 0.8270
vn -0.3552 0.3721 0.8575
vn -0.5156 0.3721 0.7718
vn -0.1811 0.3721 -0.9103
vn 0.0000 0.3721 -0.9282
vn 0.6563 0.3721 -0.6563
vn -0.1811 0.3721 0.9103
vn -0.3552 0.3721 -0.8575
vn 0.5156 0.3721 -0.7718
vn 0.0000 0.3721 0.9282
vn -0.5156 0.3721 -0.7718
vn 0.3552 0.3721 -0.8575
vn 0.1811 0.3721 0.9103
vn -0.6563 0.3721 -0.6563
vn 0.1811 0.3721 -0.9103
vn 0.3552 0.3721 0.8575
vn -0.7718 0.3721 -0.5156
vn 0.5156 0.3721 0.7718
vn -0.8575 0.3721 -0.3552
vn 0.6563 0.3721 0.6563
vn -0.9103 0.3721 -0.1811
vn 0.7718 0.3721 0.5156
vn -0.9282 0.3721 0.0000
vn 0.8575 0.3721 0.3552
vn -0.9103 0.3721 0.1811
vn 0.9103 0.3721 0.1811
vn -0.8575 0.3721 0.3552
vn 0.9282 0.3721 0.0000
vn -0.7718 0.3721 0.5156
vn 0.9103 0.3721 -0.1811
vn -0.6563 0.3721 0.6563
usemtl None
s 1
f 30/1/1 29/2/2 66/3/3 31/4/4
f 102/5/5 99/6/6 27/7/7 28/8/8
f 14/9/9 13/10/10 66/3/3 15/11/11
f 56/12/12 57/13/13 65/14/14 55/15/15
f 44/16/16 45/17/17 65/14/14 43/18/18
f 46/19/19 47/20/20 65/14/14 45/17/17
f 60/21/21 61/22/22 65/14/14 59/23/23
f 48/24/24 49/25/25 65/14/14 47/20/20
f 62/26/26 63/27/27 65/14/14 61/22/22
f 36/28/28 37/29/29 65/14/14 35/30/30
f 50/31/31 51/32/32 65/14/14 49/25/25
f 64/33/33 33/34/34 65/14/14 63/27/27
f 38/35/35 39/36/36 65/14/14 37/29/29
f 52/37/37 53/38/38 65/14/14 51/32/32
f 34/39/39 35/30/30 65/14/14 33/34/34
f 39/36/36 40/40/40 41/41/41 65/14/14
f 53/38/38 54/42/42 55/15/15 65/14/14
f 29/2/2 28/43/8 27/44/7 66/3/3
f 27/44/7 26/45/43 25/46/44 66/3/3
f 12/47/45 11/48/46 66/3/3 13/10/10
f 24/49/47 23/50/48 66/3/3 25/46/44
f 10/51/49 9/52/50 66/3/3 11/48/46
f 22/53/51 21/54/52 66/3/3 23/50/48
f 8/55/53 7/56/54 66/3/3 9/52/50
f 2/57/55 1/58/56 66/3/3 3/59/57
f 20/60/58 19/61/59 66/3/3 21/54/52
f 6/62/60 5/63/61 66/3/3 7/56/54
f 32/64/62 31/4/4 66/3/3 1/58/56
f 4/65/63 3/59/57 66/3/3 5/63/61
f 16/66/64 15/11/11 66/3/3 17/67/65
f 58/68/66 59/23/23 65/14/14 57/13/13
f 42/69/67 43/18/18 65/14/14 41/41/41
f 18/70/68 17/67/65 66/3/3 19/61/59
f 103/71/69 100/72/70 14/73/9 15/74/11
f 104/75/71 101/76/72 1/77/56 2/78/55
f 105/79/73 102/5/5 28/8/8 29/80/2
f 106/81/74 103/71/69 15/74/11 16/82/64
f 107/83/75 104/75/71 2/78/55 3/84/57
f 108/85/76 105/79/73 29/80/2 30/86/1
f 109/87/77 106/81/74 16/82/64 17/88/65
f 110/89/78 107/83/75 3/84/57 4/90/63
f 111/91/79 108/85/76 30/86/1 31/92/4
f 112/93/80 109/87/77 17/88/65 18/94/68
f 113/95/81 110/89/78 4/90/63 5/96/61
f 114/97/82 111/91/79 31/92/4 32/98/62
f 115/99/83 112/93/80 18/94/68 19/100/59
f 116/101/84 113/95/81 5/96/61 6/102/60
f 69/103/72 33/104/34 64/105/33 82/106/82
f 117/107/85 115/99/83 19/100/59 20/108/58
f 118/109/86 116/101/84 6/102/60 7/110/54
f 119/111/87 117/107/85 20/108/58 21/112/52
f 120/113/88 118/109/86 7/110/54 8/114/53
f 121/115/89 119/111/87 21/112/52 22/116/51
f 122/117/90 120/113/88 8/114/53 9/118/50
f 123/119/91 121/120/89 22/121/51 23/122/48
f 124/123/92 122/117/90 9/118/50 10/124/49
f 125/125/93 123/119/91 23/122/48 24/126/47
f 126/127/94 124/123/92 10/124/49 11/128/46
f 127/129/95 125/125/93 24/126/47 25/130/44
f 128/131/96 126/127/94 11/128/46 12/132/45
f 129/133/97 127/129/95 25/130/44 26/134/43
f 130/135/98 128/131/96 12/132/45 13/136/10
f 67/137/6 59/138/23 58/139/66 97/140/97
f 68/141/70 46/142/19 45/143/17 98/144/98
f 100/72/70 68/141/70 98/144/98 130/145/98
f 99/6/6 67/137/6 97/140/97 129/133/97
f 45/143/17 44/146/16 96/147/96 98/144/98
f 58/139/66 57/148/13 95/149/95 97/140/97
f 44/150/16 43/151/18 94/152/94 96/153/96
f 57/148/13 56/154/12 93/155/93 95/149/95
f 43/151/18 42/156/67 92/157/92 94/152/94
f 56/154/12 55/158/15 91/159/91 93/155/93
f 42/156/67 41/160/41 90/161/90 92/157/92
f 55/158/15 54/162/42 89/163/89 91/159/91
f 41/160/41 40/164/40 88/165/88 90/161/90
f 54/166/42 53/167/38 87/168/87 89/169/89
f 40/164/40 39/170/36 86/171/86 88/165/88
f 53/167/38 52/172/37 85/173/85 87/168/87
f 39/170/36 38/174/35 84/175/84 86/171/86
f 52/172/37 51/176/32 83/177/83 85/173/85
f 101/178/72 69/103/72 82/106/82 114/97/82
f 38/174/35 37/179/29 81/180/81 84/175/84
f 51/176/32 50/181/31 80/182/80 83/177/83
f 64/105/33 63/183/27 79/184/79 82/106/82
f 37/179/29 36/185/28 78/186/78 81/180/81
f 50/181/31 49/187/25 77/188/77 80/182/80
f 63/183/27 62/189/26 76/190/76 79/184/79
f 36/185/28 35/191/30 75/192/75 78/186/78
f 49/187/25 48/193/24 74/194/74 77/188/77
f 62/189/26 61/195/22 73/196/73 76/190/76
f 35/191/30 34/197/39 72/198/71 75/192/75
f 48/193/24 47/199/20 71/200/69 74/194/74
f 61/195/22 60/201/21 70/202/5 73/196/73
f 34/197/39 33/203/34 69/204/72 72/198/71
f 47/199/20 46/142/19 68/141/70 71/200/69
f 60/201/21 59/138/23 67/137/6 70/202/5
f 1/205/56 101/178/72 114/97/82 32/98/62
f 27/7/7 99/6/6 129/133/97 26/134/43
f 14/73/9 100/72/70 130/145/98 13/206/10
f 98/207/98 96/153/96 128/131/96 130/135/98
f 97/140/97 95/149/95 127/129/95 129/133/97
f 96/153/96 94/152/94 126/127/94 128/131/96
f 95/149/95 93/155/93 125/125/93 127/129/95
f 94/152/94 92/157/92 124/123/92 126/127/94
f 93/155/93 91/159/91 123/119/91 125/125/93
f 92/157/92 90/161/90 122/117/90 124/123/92
f 91/159/91 89/163/89 121/120/89 123/119/91
f 90/161/90 88/165/88 120/113/88 122/117/90
f 89/169/89 87/168/87 119/111/87 121/115/89
f 88/165/88 86/171/86 118/109/86 120/113/88
f 87/168/87 85/173/85 117/107/85 119/111/87
f 86/171/86 84/175/84 116/101/84 118/109/86
f 85/173/85 83/177/83 115/99/83 117/107/85
f 84/175/84 81/180/81 113/95/81 116/101/84
f 83/177/83 80/182/80 112/93/80 115/99/83
f 82/106/82 79/184/79 111/91/79 114/97/82
f 81/180/81 78/186/78 110/89/78 113/95/81
f 80/182/80 77/188/77 109/87/77 112/93/80
f 79/184/79 76/190/76 108/85/76 111/91/79
f 78/186/78 75/192/75 107/83/75 110/89/78
f 77/188/77 74/194/74 106/81/74 109/87/77
f 76/190/76 73/196/73 105/79/73 108/85/76
f 75/192/75 72/198/71 104/75/71 107/83/75
f 74/194/74 71/200/69 103/71/69 106/81/74
f 73/196/73 70/202/5 102/5/5 105/79/73
f 72/198/71 69/204/72 101/76/72 104/75/71
f 71/200/69 68/141/70 100/72/70 103/71/69
f 70/202/5 67/137/6 99/6/6 102/5/5
