# Blender v2.82 (sub 7) OBJ File: 'Disc 32mm.blend'
# www.blender.org
mtllib Disc 32mm.mtl
o Cylinder_Cylinder.001
v 0.012831 0.004221 -0.577712
v 0.012831 0.065891 -0.554508
v 0.051921 0.065891 -0.553143
v 0.053540 0.004221 -0.576291
v 0.090820 0.065891 -0.549054
v 0.094050 0.004221 -0.572033
v 0.129340 0.065891 -0.542262
v 0.134164 0.004221 -0.564959
v 0.167292 0.065891 -0.532800
v 0.173688 0.004221 -0.555105
v 0.204491 0.065891 -0.520712
v 0.212428 0.004221 -0.542518
v 0.240757 0.065891 -0.506060
v 0.250195 0.004221 -0.527259
v 0.275912 0.065891 -0.488914
v 0.286807 0.004221 -0.509403
v 0.309786 0.065891 -0.469357
v 0.322082 0.004221 -0.489036
v 0.342213 0.065891 -0.447486
v 0.355851 0.004221 -0.466258
v 0.373034 0.065891 -0.423405
v 0.387950 0.004221 -0.441180
v 0.402102 0.065891 -0.397232
v 0.418221 0.004221 -0.413924
v 0.429272 0.065891 -0.369096
v 0.446517 0.004221 -0.384623
v 0.454414 0.065891 -0.339133
v 0.472700 0.004221 -0.353419
v 0.477405 0.065891 -0.307489
v 0.496642 0.004221 -0.320466
v 0.498132 0.065891 -0.274319
v 0.518227 0.004221 -0.285922
v 0.516495 0.065891 -0.239784
v 0.537350 0.004221 -0.249956
v 0.532403 0.065891 -0.204051
v 0.553918 0.004221 -0.212745
v 0.545781 0.065891 -0.167297
v 0.567850 0.004221 -0.174467
v 0.556562 0.065891 -0.129699
v 0.579078 0.004221 -0.135312
v 0.564695 0.065891 -0.091439
v 0.587546 0.004221 -0.095469
v 0.570138 0.065891 -0.052706
v 0.593216 0.004221 -0.055132
v 0.572867 0.065891 -0.013687
v 0.596057 0.004221 -0.014497
v 0.572867 0.065891 0.025425
v 0.596057 0.004221 0.026235
v 0.570138 0.065891 0.064444
v 0.593216 0.004221 0.066869
v 0.564695 0.065891 0.103178
v 0.587546 0.004221 0.107207
v 0.556562 0.065891 0.141437
v 0.579078 0.004221 0.147050
v 0.545781 0.065891 0.179035
v 0.567850 0.004221 0.186205
v 0.532403 0.065891 0.215789
v 0.553918 0.004221 0.224482
v 0.516495 0.065891 0.251522
v 0.537350 0.004221 0.261694
v 0.498132 0.065891 0.286057
v 0.518227 0.004221 0.297659
v 0.477405 0.065891 0.319227
v 0.496642 0.004221 0.332204
v 0.454414 0.065891 0.350871
v 0.472700 0.004221 0.365157
v 0.429272 0.065891 0.380834
v 0.446517 0.004221 0.396361
v 0.402101 0.065891 0.408970
v 0.418221 0.004221 0.425662
v 0.373034 0.065891 0.435143
v 0.387950 0.004221 0.452918
v 0.342212 0.065891 0.459224
v 0.355851 0.004221 0.477996
v 0.309786 0.065891 0.481095
v 0.322082 0.004221 0.500774
v 0.275912 0.065891 0.500652
v 0.286805 0.004221 0.521141
v 0.240757 0.065891 0.517798
v 0.250195 0.004221 0.538997
v 0.204491 0.065891 0.532450
v 0.212428 0.004221 0.554256
v 0.167291 0.065891 0.544538
v 0.173688 0.004221 0.566843
v 0.129340 0.065891 0.554000
v 0.134164 0.004221 0.576697
v 0.090820 0.065891 0.560792
v 0.094050 0.004221 0.583771
v 0.051921 0.065891 0.564881
v 0.053540 0.004221 0.588029
v 0.012830 0.065891 0.566246
v 0.012830 0.004221 0.589450
v -0.026260 0.065891 0.564880
v -0.027878 0.004221 0.588029
v -0.065159 0.065891 0.560792
v -0.068388 0.004221 0.583771
v -0.103678 0.065891 0.554000
v -0.108503 0.004221 0.576697
v -0.141630 0.065891 0.544538
v -0.148027 0.004221 0.566843
v -0.178830 0.065891 0.532450
v -0.186766 0.004221 0.554256
v -0.215095 0.065891 0.517798
v -0.224533 0.004221 0.538997
v -0.250250 0.065891 0.500651
v -0.261144 0.004221 0.521141
v -0.284124 0.065891 0.481095
v -0.296420 0.004221 0.500773
v -0.316550 0.065891 0.459222
v -0.330190 0.004221 0.477995
v -0.347373 0.065891 0.435142
v -0.362289 0.004221 0.452917
v -0.376439 0.065891 0.408969
v -0.392559 0.004221 0.425661
v -0.403611 0.065891 0.380833
v -0.420854 0.004221 0.396360
v -0.428752 0.065891 0.350871
v -0.447037 0.004221 0.365156
v -0.451742 0.065891 0.319227
v -0.470980 0.004221 0.332203
v -0.472469 0.065891 0.286056
v -0.492565 0.004221 0.297659
v -0.490832 0.065891 0.251521
v -0.511689 0.004221 0.261693
v -0.506742 0.065891 0.215788
v -0.528256 0.004221 0.224482
v -0.520119 0.065891 0.179034
v -0.542188 0.004221 0.186204
v -0.530899 0.065891 0.141436
v -0.553415 0.004221 0.147049
v -0.539032 0.065891 0.103176
v -0.561884 0.004221 0.107206
v -0.544476 0.065891 0.064443
v -0.567553 0.004221 0.066868
v -0.547204 0.065891 0.025424
v -0.570395 0.004221 0.026234
v -0.547203 0.065891 -0.013690
v -0.570395 0.004221 -0.014500
v -0.544476 0.065891 -0.052708
v -0.567552 0.004221 -0.055133
v -0.539031 0.065891 -0.091441
v -0.561884 0.004221 -0.095471
v -0.530899 0.065891 -0.129700
v -0.553414 0.004221 -0.135313
v -0.520118 0.065891 -0.167298
v -0.542187 0.004221 -0.174470
v -0.506740 0.065891 -0.204053
v -0.528255 0.004221 -0.212746
v -0.490831 0.065891 -0.239785
v -0.511688 0.004221 -0.249957
v -0.472468 0.065891 -0.274321
v -0.492564 0.004221 -0.285923
v -0.451741 0.065891 -0.307491
v -0.470978 0.004221 -0.320467
v -0.428750 0.065891 -0.339135
v -0.447035 0.004221 -0.353421
v -0.403608 0.065891 -0.369097
v -0.420853 0.004221 -0.384624
v -0.376437 0.065891 -0.397233
v -0.392557 0.004221 -0.413925
v -0.347370 0.065891 -0.423406
v -0.362286 0.004221 -0.441182
v -0.316548 0.065891 -0.447487
v -0.330187 0.004221 -0.466259
v -0.284122 0.065891 -0.469358
v -0.296418 0.004221 -0.489037
v -0.250248 0.065891 -0.488916
v -0.261142 0.004221 -0.509404
v -0.215092 0.065891 -0.506061
v -0.224530 0.004221 -0.527260
v -0.178826 0.065891 -0.520713
v -0.186763 0.004221 -0.542519
v -0.141627 0.065891 -0.532800
v -0.148023 0.004221 -0.555105
v -0.103675 0.065891 -0.542262
v -0.108499 0.004221 -0.564960
v -0.065155 0.065891 -0.549054
v -0.068385 0.004221 -0.572033
v -0.026256 0.065891 -0.553143
v -0.027875 0.004221 -0.576291
vt 1.000000 0.500000
vt 1.000000 1.000000
vt 0.988889 1.000000
vt 0.988889 0.500000
vt 0.977778 1.000000
vt 0.977778 0.500000
vt 0.966667 1.000000
vt 0.966667 0.500000
vt 0.955555 1.000000
vt 0.955555 0.500000
vt 0.944444 1.000000
vt 0.944444 0.500000
vt 0.933333 1.000000
vt 0.933333 0.500000
vt 0.922222 1.000000
vt 0.922222 0.500000
vt 0.911111 1.000000
vt 0.911111 0.500000
vt 0.900000 1.000000
vt 0.900000 0.500000
vt 0.888889 1.000000
vt 0.888889 0.500000
vt 0.877777 1.000000
vt 0.877777 0.500000
vt 0.866666 1.000000
vt 0.866666 0.500000
vt 0.855555 1.000000
vt 0.855555 0.500000
vt 0.844444 1.000000
vt 0.844444 0.500000
vt 0.833333 1.000000
vt 0.833333 0.500000
vt 0.822222 1.000000
vt 0.822222 0.500000
vt 0.811111 1.000000
vt 0.811111 0.500000
vt 0.799999 1.000000
vt 0.799999 0.500000
vt 0.788888 1.000000
vt 0.788888 0.500000
vt 0.777777 1.000000
vt 0.777777 0.500000
vt 0.766666 1.000000
vt 0.766666 0.500000
vt 0.755555 1.000000
vt 0.755555 0.500000
vt 0.744444 1.000000
vt 0.744444 0.500000
vt 0.733333 1.000000
vt 0.733333 0.500000
vt 0.722221 1.000000
vt 0.722221 0.500000
vt 0.711110 1.000000
vt 0.711110 0.500000
vt 0.699999 1.000000
vt 0.699999 0.500000
vt 0.688888 1.000000
vt 0.688888 0.500000
vt 0.677777 1.000000
vt 0.677777 0.500000
vt 0.666666 1.000000
vt 0.666666 0.500000
vt 0.655555 1.000000
vt 0.655555 0.500000
vt 0.644444 1.000000
vt 0.644444 0.500000
vt 0.633332 1.000000
vt 0.633332 0.500000
vt 0.622221 1.000000
vt 0.622221 0.500000
vt 0.611110 1.000000
vt 0.611110 0.500000
vt 0.599999 1.000000
vt 0.599999 0.500000
vt 0.588888 1.000000
vt 0.588888 0.500000
vt 0.577777 1.000000
vt 0.577777 0.500000
vt 0.566666 1.000000
vt 0.566666 0.500000
vt 0.555554 1.000000
vt 0.555554 0.500000
vt 0.544443 1.000000
vt 0.544443 0.500000
vt 0.533332 1.000000
vt 0.533332 0.500000
vt 0.522221 1.000000
vt 0.522221 0.500000
vt 0.511110 1.000000
vt 0.511110 0.500000
vt 0.499999 1.000000
vt 0.499999 0.500000
vt 0.488888 1.000000
vt 0.488888 0.500000
vt 0.477776 1.000000
vt 0.477776 0.500000
vt 0.466665 1.000000
vt 0.466665 0.500000
vt 0.455554 1.000000
vt 0.455554 0.500000
vt 0.444443 1.000000
vt 0.444443 0.500000
vt 0.433332 1.000000
vt 0.433332 0.500000
vt 0.422221 1.000000
vt 0.422221 0.500000
vt 0.411110 1.000000
vt 0.411110 0.500000
vt 0.399999 1.000000
vt 0.399999 0.500000
vt 0.388888 1.000000
vt 0.388888 0.500000
vt 0.377777 1.000000
vt 0.377777 0.500000
vt 0.366665 1.000000
vt 0.366665 0.500000
vt 0.355554 1.000000
vt 0.355554 0.500000
vt 0.344443 1.000000
vt 0.344443 0.500000
vt 0.333332 1.000000
vt 0.333332 0.500000
vt 0.322221 1.000000
vt 0.322221 0.500000
vt 0.311110 1.000000
vt 0.311110 0.500000
vt 0.299999 1.000000
vt 0.299999 0.500000
vt 0.288888 1.000000
vt 0.288888 0.500000
vt 0.277777 1.000000
vt 0.277777 0.500000
vt 0.266665 1.000000
vt 0.266665 0.500000
vt 0.255554 1.000000
vt 0.255554 0.500000
vt 0.244443 1.000000
vt 0.244443 0.500000
vt 0.233332 1.000000
vt 0.233332 0.500000
vt 0.222221 1.000000
vt 0.222221 0.500000
vt 0.211110 1.000000
vt 0.211110 0.500000
vt 0.199999 1.000000
vt 0.199999 0.500000
vt 0.188888 1.000000
vt 0.188888 0.500000
vt 0.177777 1.000000
vt 0.177777 0.500000
vt 0.166665 1.000000
vt 0.166665 0.500000
vt 0.155554 1.000000
vt 0.155554 0.500000
vt 0.144443 1.000000
vt 0.144443 0.500000
vt 0.133332 1.000000
vt 0.133332 0.500000
vt 0.122221 1.000000
vt 0.122221 0.500000
vt 0.111110 1.000000
vt 0.111110 0.500000
vt 0.099999 1.000000
vt 0.099999 0.500000
vt 0.088888 1.000000
vt 0.088888 0.500000
vt 0.077777 1.000000
vt 0.077777 0.500000
vt 0.066665 1.000000
vt 0.066665 0.500000
vt 0.055554 1.000000
vt 0.055554 0.500000
vt 0.044443 1.000000
vt 0.044443 0.500000
vt 0.033332 1.000000
vt 0.033332 0.500000
vt 0.022221 1.000000
vt 0.022221 0.500000
vt 0.021747 0.324165
vt 0.332085 0.024474
vt 0.377181 0.453532
vt 0.011110 1.000000
vt 0.011110 0.500000
vt -0.000001 1.000000
vt -0.000001 0.500000
vt 0.652383 0.030749
vt 0.510146 0.241625
vt 0.637328 0.461908
vt 0.283402 0.487664
vt 0.266742 0.489415
vt 0.250000 0.490000
vt 0.233259 0.489415
vt 0.216599 0.487664
vt 0.200102 0.484756
vt 0.183848 0.480703
vt 0.167916 0.475527
vt 0.152384 0.469251
vt 0.137328 0.461908
vt 0.122820 0.453532
vt 0.108932 0.444165
vt 0.095732 0.433851
vt 0.083283 0.422642
vt 0.051031 0.384207
vt 0.071646 0.410592
vt 0.060878 0.397759
vt 0.042154 0.370001
vt 0.034290 0.355210
vt 0.027476 0.339906
vt 0.017129 0.308062
vt 0.013646 0.291676
vt 0.011315 0.275087
vt 0.010146 0.258377
vt 0.010146 0.241625
vt 0.011315 0.224914
vt 0.013646 0.208325
vt 0.017129 0.191939
vt 0.021746 0.175836
vt 0.027476 0.160095
vt 0.034289 0.144791
vt 0.042154 0.130000
vt 0.051031 0.115794
vt 0.060877 0.102242
vt 0.071645 0.089409
vt 0.083282 0.077359
vt 0.095731 0.066150
vt 0.108931 0.055836
vt 0.122819 0.046469
vt 0.137326 0.038093
vt 0.152383 0.030749
vt 0.167915 0.024474
vt 0.183847 0.019297
vt 0.200101 0.015245
vt 0.216598 0.012336
vt 0.233258 0.010585
vt 0.250000 0.010000
vt 0.266741 0.010585
vt 0.283401 0.012336
vt 0.299899 0.015245
vt 0.316153 0.019297
vt 0.347617 0.030749
vt 0.391068 0.055836
vt 0.362673 0.038093
vt 0.377181 0.046468
vt 0.404269 0.066149
vt 0.416718 0.077358
vt 0.428355 0.089409
vt 0.439123 0.102241
vt 0.448969 0.115794
vt 0.457846 0.130000
vt 0.465711 0.144791
vt 0.472524 0.160094
vt 0.478254 0.175836
vt 0.488685 0.224913
vt 0.482871 0.191939
vt 0.486354 0.208324
vt 0.489854 0.241624
vt 0.489854 0.258376
vt 0.488685 0.275087
vt 0.486354 0.291676
vt 0.482871 0.308061
vt 0.478254 0.324164
vt 0.472524 0.339906
vt 0.465711 0.355209
vt 0.457846 0.370000
vt 0.448969 0.384206
vt 0.439123 0.397759
vt 0.428355 0.410591
vt 0.416718 0.422642
vt 0.404269 0.433851
vt 0.391068 0.444164
vt 0.362673 0.461907
vt 0.347617 0.469251
vt 0.332085 0.475526
vt 0.316153 0.480703
vt 0.299899 0.484755
vt 0.733259 0.489415
vt 0.750000 0.490000
vt 0.766742 0.489415
vt 0.783402 0.487664
vt 0.799899 0.484755
vt 0.816153 0.480703
vt 0.832085 0.475526
vt 0.847617 0.469251
vt 0.862673 0.461907
vt 0.877181 0.453532
vt 0.916718 0.422642
vt 0.891068 0.444164
vt 0.904269 0.433851
vt 0.928355 0.410591
vt 0.939123 0.397759
vt 0.948969 0.384206
vt 0.957846 0.370000
vt 0.965711 0.355209
vt 0.972524 0.339906
vt 0.978254 0.324164
vt 0.982871 0.308061
vt 0.986354 0.291676
vt 0.989854 0.241624
vt 0.988685 0.275087
vt 0.989854 0.258376
vt 0.988685 0.224913
vt 0.986354 0.208324
vt 0.982871 0.191939
vt 0.978254 0.175836
vt 0.972524 0.160094
vt 0.948969 0.115794
vt 0.965711 0.144791
vt 0.957846 0.130000
vt 0.939123 0.102241
vt 0.928355 0.089409
vt 0.916718 0.077358
vt 0.904269 0.066149
vt 0.891068 0.055836
vt 0.847617 0.030749
vt 0.877181 0.046468
vt 0.862673 0.038093
vt 0.832085 0.024474
vt 0.816153 0.019297
vt 0.799899 0.015245
vt 0.783401 0.012336
vt 0.766741 0.010585
vt 0.750000 0.010000
vt 0.733258 0.010585
vt 0.716598 0.012336
vt 0.700101 0.015245
vt 0.683847 0.019297
vt 0.667915 0.024474
vt 0.637326 0.038093
vt 0.622819 0.046469
vt 0.608931 0.055836
vt 0.595731 0.066150
vt 0.583282 0.077359
vt 0.571645 0.089409
vt 0.560877 0.102242
vt 0.551031 0.115794
vt 0.542154 0.130000
vt 0.521746 0.175836
vt 0.534289 0.144791
vt 0.527476 0.160095
vt 0.517129 0.191939
vt 0.513646 0.208325
vt 0.511315 0.224914
vt 0.510146 0.258377
vt 0.511315 0.275087
vt 0.513646 0.291676
vt 0.517129 0.308062
vt 0.521747 0.324165
vt 0.527476 0.339906
vt 0.534290 0.355210
vt 0.542154 0.370001
vt 0.551031 0.384207
vt 0.583283 0.422642
vt 0.560878 0.397759
vt 0.571646 0.410592
vt 0.595732 0.433851
vt 0.608932 0.444165
vt 0.622820 0.453532
vt 0.652384 0.469251
vt 0.667916 0.475527
vt 0.683848 0.480703
vt 0.700102 0.484756
vt 0.716599 0.487664
vn 0.0327 0.3520 -0.9354
vn 0.0978 0.3520 -0.9309
vn 0.1625 0.3520 -0.9218
vn 0.2264 0.3520 -0.9082
vn 0.2893 0.3520 -0.8902
vn 0.3506 0.3520 -0.8679
vn 0.4103 0.3520 -0.8413
vn 0.4680 0.3520 -0.8106
vn 0.5234 0.3520 -0.7760
vn 0.5763 0.3520 -0.7376
vn 0.6263 0.3520 -0.6956
vn 0.6733 0.3520 -0.6502
vn 0.7170 0.3520 -0.6017
vn 0.7572 0.3520 -0.5502
vn 0.7938 0.3520 -0.4960
vn 0.8265 0.3520 -0.4394
vn 0.8551 0.3520 -0.3807
vn 0.8796 0.3520 -0.3201
vn 0.8997 0.3520 -0.2580
vn 0.9156 0.3520 -0.1946
vn 0.9269 0.3520 -0.1303
vn 0.9337 0.3520 -0.0653
vn 0.9360 0.3520 0.0000
vn 0.9337 0.3520 0.0653
vn 0.9269 0.3520 0.1303
vn 0.9156 0.3520 0.1946
vn 0.8997 0.3520 0.2580
vn 0.8796 0.3520 0.3201
vn 0.8551 0.3520 0.3807
vn 0.8264 0.3520 0.4394
vn 0.7938 0.3520 0.4960
vn 0.7572 0.3520 0.5502
vn 0.7170 0.3520 0.6017
vn 0.6733 0.3520 0.6502
vn 0.6263 0.3520 0.6956
vn 0.5763 0.3520 0.7376
vn 0.5234 0.3520 0.7760
vn 0.4680 0.3520 0.8106
vn 0.4103 0.3520 0.8413
vn 0.3506 0.3520 0.8679
vn 0.2892 0.3520 0.8902
vn 0.2264 0.3520 0.9082
vn 0.1625 0.3520 0.9218
vn 0.0978 0.3520 0.9309
vn 0.0327 0.3520 0.9354
vn -0.0327 0.3520 0.9354
vn -0.0978 0.3520 0.9309
vn -0.1625 0.3520 0.9218
vn -0.2264 0.3520 0.9082
vn -0.2892 0.3520 0.8902
vn -0.3506 0.3520 0.8679
vn -0.4103 0.3520 0.8413
vn -0.4680 0.3520 0.8106
vn -0.5234 0.3520 0.7760
vn -0.5763 0.3520 0.7376
vn -0.6263 0.3520 0.6956
vn -0.6733 0.3520 0.6502
vn -0.7170 0.3520 0.6017
vn -0.7572 0.3520 0.5502
vn -0.7938 0.3520 0.4960
vn -0.8264 0.3520 0.4394
vn -0.8551 0.3520 0.3807
vn -0.8796 0.3520 0.3201
vn -0.8998 0.3520 0.2580
vn -0.9156 0.3520 0.1946
vn -0.9269 0.3520 0.1303
vn -0.9337 0.3520 0.0653
vn -0.9360 0.3520 -0.0000
vn -0.9337 0.3520 -0.0653
vn -0.9269 0.3520 -0.1303
vn -0.9156 0.3520 -0.1946
vn -0.8998 0.3520 -0.2580
vn -0.8796 0.3520 -0.3201
vn -0.8551 0.3520 -0.3807
vn -0.8264 0.3520 -0.4394
vn -0.7938 0.3520 -0.4960
vn -0.7573 0.3520 -0.5502
vn -0.7170 0.3520 -0.6017
vn -0.6733 0.3520 -0.6502
vn -0.6263 0.3520 -0.6956
vn -0.5763 0.3520 -0.7376
vn -0.5234 0.3520 -0.7760
vn -0.4680 0.3520 -0.8106
vn -0.4103 0.3520 -0.8413
vn -0.3506 0.3520 -0.8679
vn -0.2892 0.3520 -0.8902
vn -0.2264 0.3520 -0.9082
vn -0.1625 0.3520 -0.9218
vn 0.0000 1.0000 0.0000
vn -0.0978 0.3520 -0.9309
vn -0.0327 0.3520 -0.9354
vn -0.0000 -1.0000 -0.0000
usemtl None
s 1
f 1/1/1 2/2/1 3/3/1 4/4/1
f 4/4/2 3/3/2 5/5/2 6/6/2
f 6/6/3 5/5/3 7/7/3 8/8/3
f 8/8/4 7/7/4 9/9/4 10/10/4
f 10/10/5 9/9/5 11/11/5 12/12/5
f 12/12/6 11/11/6 13/13/6 14/14/6
f 14/14/7 13/13/7 15/15/7 16/16/7
f 16/16/8 15/15/8 17/17/8 18/18/8
f 18/18/9 17/17/9 19/19/9 20/20/9
f 20/20/10 19/19/10 21/21/10 22/22/10
f 22/22/11 21/21/11 23/23/11 24/24/11
f 24/24/12 23/23/12 25/25/12 26/26/12
f 26/26/13 25/25/13 27/27/13 28/28/13
f 28/28/14 27/27/14 29/29/14 30/30/14
f 30/30/15 29/29/15 31/31/15 32/32/15
f 32/32/16 31/31/16 33/33/16 34/34/16
f 34/34/17 33/33/17 35/35/17 36/36/17
f 36/36/18 35/35/18 37/37/18 38/38/18
f 38/38/19 37/37/19 39/39/19 40/40/19
f 40/40/20 39/39/20 41/41/20 42/42/20
f 42/42/21 41/41/21 43/43/21 44/44/21
f 44/44/22 43/43/22 45/45/22 46/46/22
f 46/46/23 45/45/23 47/47/23 48/48/23
f 48/48/24 47/47/24 49/49/24 50/50/24
f 50/50/25 49/49/25 51/51/25 52/52/25
f 52/52/26 51/51/26 53/53/26 54/54/26
f 54/54/27 53/53/27 55/55/27 56/56/27
f 56/56/28 55/55/28 57/57/28 58/58/28
f 58/58/29 57/57/29 59/59/29 60/60/29
f 60/60/30 59/59/30 61/61/30 62/62/30
f 62/62/31 61/61/31 63/63/31 64/64/31
f 64/64/32 63/63/32 65/65/32 66/66/32
f 66/66/33 65/65/33 67/67/33 68/68/33
f 68/68/34 67/67/34 69/69/34 70/70/34
f 70/70/35 69/69/35 71/71/35 72/72/35
f 72/72/36 71/71/36 73/73/36 74/74/36
f 74/74/37 73/73/37 75/75/37 76/76/37
f 76/76/38 75/75/38 77/77/38 78/78/38
f 78/78/39 77/77/39 79/79/39 80/80/39
f 80/80/40 79/79/40 81/81/40 82/82/40
f 82/82/41 81/81/41 83/83/41 84/84/41
f 84/84/42 83/83/42 85/85/42 86/86/42
f 86/86/43 85/85/43 87/87/43 88/88/43
f 88/88/44 87/87/44 89/89/44 90/90/44
f 90/90/45 89/89/45 91/91/45 92/92/45
f 92/92/46 91/91/46 93/93/46 94/94/46
f 94/94/47 93/93/47 95/95/47 96/96/47
f 96/96/48 95/95/48 97/97/48 98/98/48
f 98/98/49 97/97/49 99/99/49 100/100/49
f 100/100/50 99/99/50 101/101/50 102/102/50
f 102/102/51 101/101/51 103/103/51 104/104/51
f 104/104/52 103/103/52 105/105/52 106/106/52
f 106/106/53 105/105/53 107/107/53 108/108/53
f 108/108/54 107/107/54 109/109/54 110/110/54
f 110/110/55 109/109/55 111/111/55 112/112/55
f 112/112/56 111/111/56 113/113/56 114/114/56
f 114/114/57 113/113/57 115/115/57 116/116/57
f 116/116/58 115/115/58 117/117/58 118/118/58
f 118/118/59 117/117/59 119/119/59 120/120/59
f 120/120/60 119/119/60 121/121/60 122/122/60
f 122/122/61 121/121/61 123/123/61 124/124/61
f 124/124/62 123/123/62 125/125/62 126/126/62
f 126/126/63 125/125/63 127/127/63 128/128/63
f 128/128/64 127/127/64 129/129/64 130/130/64
f 130/130/65 129/129/65 131/131/65 132/132/65
f 132/132/66 131/131/66 133/133/66 134/134/66
f 134/134/67 133/133/67 135/135/67 136/136/67
f 136/136/68 135/135/68 137/137/68 138/138/68
f 138/138/69 137/137/69 139/139/69 140/140/69
f 140/140/70 139/139/70 141/141/70 142/142/70
f 142/142/71 141/141/71 143/143/71 144/144/71
f 144/144/72 143/143/72 145/145/72 146/146/72
f 146/146/73 145/145/73 147/147/73 148/148/73
f 148/148/74 147/147/74 149/149/74 150/150/74
f 150/150/75 149/149/75 151/151/75 152/152/75
f 152/152/76 151/151/76 153/153/76 154/154/76
f 154/154/77 153/153/77 155/155/77 156/156/77
f 156/156/78 155/155/78 157/157/78 158/158/78
f 158/158/79 157/157/79 159/159/79 160/160/79
f 160/160/80 159/159/80 161/161/80 162/162/80
f 162/162/81 161/161/81 163/163/81 164/164/81
f 164/164/82 163/163/82 165/165/82 166/166/82
f 166/166/83 165/165/83 167/167/83 168/168/83
f 168/168/84 167/167/84 169/169/84 170/170/84
f 170/170/85 169/169/85 171/171/85 172/172/85
f 172/172/86 171/171/86 173/173/86 174/174/86
f 174/174/87 173/173/87 175/175/87 176/176/87
f 176/176/88 175/175/88 177/177/88 178/178/88
f 145/179/89 81/180/89 17/181/89
f 178/178/90 177/177/90 179/182/90 180/183/90
f 180/183/91 179/182/91 2/184/91 1/185/91
f 104/186/92 136/187/92 168/188/92
f 5/189/89 3/190/89 2/191/89
f 2/191/89 179/192/89 177/193/89
f 177/193/89 175/194/89 173/195/89
f 173/195/89 171/196/89 177/193/89
f 171/196/89 169/197/89 177/193/89
f 169/197/89 167/198/89 165/199/89
f 165/199/89 163/200/89 169/197/89
f 163/200/89 161/201/89 169/197/89
f 161/201/89 159/202/89 153/203/89
f 159/202/89 157/204/89 153/203/89
f 157/204/89 155/205/89 153/203/89
f 153/203/89 151/206/89 149/207/89
f 149/207/89 147/208/89 153/203/89
f 147/208/89 145/179/89 153/203/89
f 145/179/89 143/209/89 141/210/89
f 141/210/89 139/211/89 145/179/89
f 139/211/89 137/212/89 145/179/89
f 137/212/89 135/213/89 133/214/89
f 133/214/89 131/215/89 137/212/89
f 131/215/89 129/216/89 137/212/89
f 129/216/89 127/217/89 125/218/89
f 125/218/89 123/219/89 129/216/89
f 123/219/89 121/220/89 129/216/89
f 121/220/89 119/221/89 117/222/89
f 117/222/89 115/223/89 113/224/89
f 113/224/89 111/225/89 109/226/89
f 109/226/89 107/227/89 105/228/89
f 105/228/89 103/229/89 101/230/89
f 101/230/89 99/231/89 97/232/89
f 97/232/89 95/233/89 93/234/89
f 93/234/89 91/235/89 97/232/89
f 91/235/89 89/236/89 97/232/89
f 89/236/89 87/237/89 85/238/89
f 85/238/89 83/239/89 89/236/89
f 83/239/89 81/180/89 89/236/89
f 81/180/89 79/240/89 73/241/89
f 79/240/89 77/242/89 73/241/89
f 77/242/89 75/243/89 73/241/89
f 73/241/89 71/244/89 69/245/89
f 69/245/89 67/246/89 65/247/89
f 65/247/89 63/248/89 61/249/89
f 61/249/89 59/250/89 65/247/89
f 59/250/89 57/251/89 65/247/89
f 57/251/89 55/252/89 49/253/89
f 55/252/89 53/254/89 49/253/89
f 53/254/89 51/255/89 49/253/89
f 49/253/89 47/256/89 45/257/89
f 45/257/89 43/258/89 41/259/89
f 41/259/89 39/260/89 37/261/89
f 37/261/89 35/262/89 41/259/89
f 35/262/89 33/263/89 41/259/89
f 33/263/89 31/264/89 29/265/89
f 29/265/89 27/266/89 25/267/89
f 25/267/89 23/268/89 17/181/89
f 23/268/89 21/269/89 17/181/89
f 21/269/89 19/270/89 17/181/89
f 17/181/89 15/271/89 13/272/89
f 13/272/89 11/273/89 17/181/89
f 11/273/89 9/274/89 17/181/89
f 9/274/89 7/275/89 5/189/89
f 5/189/89 2/191/89 177/193/89
f 121/220/89 117/222/89 129/216/89
f 117/222/89 113/224/89 129/216/89
f 113/224/89 109/226/89 105/228/89
f 105/228/89 101/230/89 113/224/89
f 101/230/89 97/232/89 113/224/89
f 73/241/89 69/245/89 65/247/89
f 49/253/89 45/257/89 41/259/89
f 33/263/89 29/265/89 25/267/89
f 9/274/89 5/189/89 17/181/89
f 5/189/89 177/193/89 17/181/89
f 177/193/89 169/197/89 161/201/89
f 161/201/89 153/203/89 177/193/89
f 153/203/89 145/179/89 177/193/89
f 145/179/89 137/212/89 129/216/89
f 97/232/89 89/236/89 81/180/89
f 81/180/89 73/241/89 65/247/89
f 65/247/89 57/251/89 49/253/89
f 49/253/89 41/259/89 33/263/89
f 33/263/89 25/267/89 49/253/89
f 25/267/89 17/181/89 49/253/89
f 145/179/89 129/216/89 113/224/89
f 113/224/89 97/232/89 145/179/89
f 97/232/89 81/180/89 145/179/89
f 81/180/89 65/247/89 49/253/89
f 17/181/89 177/193/89 145/179/89
f 81/180/89 49/253/89 17/181/89
f 180/276/92 1/277/92 4/278/92
f 4/278/92 6/279/92 180/276/92
f 6/279/92 8/280/92 180/276/92
f 8/280/92 10/281/92 12/282/92
f 12/282/92 14/283/92 16/284/92
f 16/284/92 18/285/92 24/286/92
f 18/285/92 20/287/92 24/286/92
f 20/287/92 22/288/92 24/286/92
f 24/286/92 26/289/92 28/290/92
f 28/290/92 30/291/92 24/286/92
f 30/291/92 32/292/92 24/286/92
f 32/292/92 34/293/92 36/294/92
f 36/294/92 38/295/92 40/296/92
f 40/296/92 42/297/92 48/298/92
f 42/297/92 44/299/92 48/298/92
f 44/299/92 46/300/92 48/298/92
f 48/298/92 50/301/92 52/302/92
f 52/302/92 54/303/92 56/304/92
f 56/304/92 58/305/92 64/306/92
f 58/305/92 60/307/92 64/306/92
f 60/307/92 62/308/92 64/306/92
f 64/306/92 66/309/92 68/310/92
f 68/310/92 70/311/92 64/306/92
f 70/311/92 72/312/92 64/306/92
f 72/312/92 74/313/92 80/314/92
f 74/313/92 76/315/92 80/314/92
f 76/315/92 78/316/92 80/314/92
f 80/314/92 82/317/92 84/318/92
f 84/318/92 86/319/92 88/320/92
f 88/320/92 90/321/92 92/322/92
f 92/322/92 94/323/92 88/320/92
f 94/323/92 96/324/92 88/320/92
f 96/324/92 98/325/92 100/326/92
f 100/326/92 102/327/92 104/186/92
f 104/186/92 106/328/92 108/329/92
f 108/329/92 110/330/92 104/186/92
f 110/330/92 112/331/92 104/186/92
f 112/331/92 114/332/92 116/333/92
f 116/333/92 118/334/92 112/331/92
f 118/334/92 120/335/92 112/331/92
f 120/335/92 122/336/92 128/337/92
f 122/336/92 124/338/92 128/337/92
f 124/338/92 126/339/92 128/337/92
f 128/337/92 130/340/92 132/341/92
f 132/341/92 134/342/92 136/187/92
f 136/187/92 138/343/92 140/344/92
f 140/344/92 142/345/92 136/187/92
f 142/345/92 144/346/92 136/187/92
f 144/346/92 146/347/92 148/348/92
f 148/348/92 150/349/92 152/350/92
f 152/350/92 154/351/92 160/352/92
f 154/351/92 156/353/92 160/352/92
f 156/353/92 158/354/92 160/352/92
f 160/352/92 162/355/92 168/188/92
f 162/355/92 164/356/92 168/188/92
f 164/356/92 166/357/92 168/188/92
f 168/188/92 170/358/92 172/359/92
f 172/359/92 174/360/92 176/361/92
f 176/361/92 178/362/92 8/280/92
f 178/362/92 180/276/92 8/280/92
f 8/280/92 12/282/92 24/286/92
f 12/282/92 16/284/92 24/286/92
f 32/292/92 36/294/92 24/286/92
f 36/294/92 40/296/92 24/286/92
f 48/298/92 52/302/92 40/296/92
f 52/302/92 56/304/92 40/296/92
f 80/314/92 84/318/92 88/320/92
f 96/324/92 100/326/92 104/186/92
f 128/337/92 132/341/92 136/187/92
f 144/346/92 148/348/92 136/187/92
f 148/348/92 152/350/92 136/187/92
f 168/188/92 172/359/92 8/280/92
f 172/359/92 176/361/92 8/280/92
f 56/304/92 64/306/92 72/312/92
f 72/312/92 80/314/92 104/186/92
f 80/314/92 88/320/92 104/186/92
f 88/320/92 96/324/92 104/186/92
f 104/186/92 112/331/92 120/335/92
f 120/335/92 128/337/92 104/186/92
f 128/337/92 136/187/92 104/186/92
f 152/350/92 160/352/92 168/188/92
f 8/280/92 24/286/92 40/296/92
f 40/296/92 56/304/92 72/312/92
f 136/187/92 152/350/92 168/188/92
f 168/188/92 8/280/92 104/186/92
f 8/280/92 40/296/92 104/186/92
f 40/296/92 72/312/92 104/186/92
