# Blender v2.82 (sub 7) OBJ File: 'Disc 40mm.blend'
# www.blender.org
mtllib Disc 40mm.mtl
o Cylinder_Cylinder.001
v 0.000000 0.004221 -0.746655
v 0.000000 0.065891 -0.716967
v 0.050013 0.065891 -0.715220
v 0.052084 0.004221 -0.744836
v 0.099782 0.065891 -0.709989
v 0.103914 0.004221 -0.739389
v 0.149065 0.065891 -0.701299
v 0.155238 0.004221 -0.730339
v 0.197623 0.065891 -0.689192
v 0.205806 0.004221 -0.717731
v 0.245216 0.065891 -0.673727
v 0.255371 0.004221 -0.701626
v 0.291616 0.065891 -0.654981
v 0.303692 0.004221 -0.682103
v 0.336595 0.065891 -0.633044
v 0.350534 0.004221 -0.659257
v 0.379934 0.065891 -0.608021
v 0.395667 0.004221 -0.633200
v 0.421423 0.065891 -0.580038
v 0.438872 0.004221 -0.604057
v 0.460856 0.065891 -0.549229
v 0.479941 0.004221 -0.571971
v 0.498047 0.065891 -0.515742
v 0.518670 0.004221 -0.537099
v 0.532809 0.065891 -0.479744
v 0.554873 0.004221 -0.499610
v 0.564977 0.065891 -0.441408
v 0.588373 0.004221 -0.459686
v 0.594392 0.065891 -0.400922
v 0.619005 0.004221 -0.417524
v 0.620911 0.065891 -0.358483
v 0.646622 0.004221 -0.373328
v 0.644405 0.065891 -0.314297
v 0.671089 0.004221 -0.327312
v 0.664759 0.065891 -0.268579
v 0.692286 0.004221 -0.279702
v 0.681875 0.065891 -0.221555
v 0.710111 0.004221 -0.230729
v 0.695669 0.065891 -0.173450
v 0.724476 0.004221 -0.180632
v 0.706074 0.065891 -0.124500
v 0.735311 0.004221 -0.129655
v 0.713039 0.065891 -0.074943
v 0.742565 0.004221 -0.078047
v 0.716530 0.065891 -0.025021
v 0.746201 0.004221 -0.026057
v 0.716530 0.065891 0.025021
v 0.746201 0.004221 0.026057
v 0.713039 0.065891 0.074943
v 0.742565 0.004221 0.078046
v 0.706074 0.065891 0.124500
v 0.735311 0.004221 0.129655
v 0.695669 0.065891 0.173450
v 0.724476 0.004221 0.180632
v 0.681875 0.065891 0.221555
v 0.710111 0.004221 0.230729
v 0.664759 0.065891 0.268579
v 0.692286 0.004221 0.279701
v 0.644405 0.065891 0.314297
v 0.671089 0.004221 0.327312
v 0.620911 0.065891 0.358483
v 0.646622 0.004221 0.373327
v 0.594392 0.065891 0.400922
v 0.619005 0.004221 0.417524
v 0.564977 0.065891 0.441408
v 0.588373 0.004221 0.459686
v 0.532809 0.065891 0.479744
v 0.554873 0.004221 0.499610
v 0.498046 0.065891 0.515742
v 0.518670 0.004221 0.537099
v 0.460856 0.065891 0.549229
v 0.479941 0.004221 0.571971
v 0.421421 0.065891 0.580038
v 0.438872 0.004221 0.604057
v 0.379934 0.065891 0.608021
v 0.395667 0.004221 0.633200
v 0.336595 0.065891 0.633044
v 0.350532 0.004221 0.659257
v 0.291616 0.065891 0.654981
v 0.303692 0.004221 0.682103
v 0.245216 0.065891 0.673727
v 0.255371 0.004221 0.701626
v 0.197622 0.065891 0.689192
v 0.205806 0.004221 0.717731
v 0.149065 0.065891 0.701299
v 0.155238 0.004221 0.730339
v 0.099782 0.065891 0.709989
v 0.103914 0.004221 0.739389
v 0.050013 0.065891 0.715220
v 0.052084 0.004221 0.744836
v -0.000001 0.065891 0.716967
v -0.000001 0.004221 0.746655
v -0.050014 0.065891 0.715219
v -0.052085 0.004221 0.744836
v -0.099783 0.065891 0.709989
v -0.103915 0.004221 0.739389
v -0.149067 0.065891 0.701299
v -0.155239 0.004221 0.730339
v -0.197623 0.065891 0.689192
v -0.205808 0.004221 0.717731
v -0.245218 0.065891 0.673727
v -0.255372 0.004221 0.701626
v -0.291618 0.065891 0.654981
v -0.303693 0.004221 0.682103
v -0.336596 0.065891 0.633042
v -0.350534 0.004221 0.659257
v -0.379935 0.065891 0.608021
v -0.395668 0.004221 0.633198
v -0.421423 0.065891 0.580037
v -0.438874 0.004221 0.604055
v -0.460858 0.065891 0.549227
v -0.479942 0.004221 0.571970
v -0.498047 0.065891 0.515741
v -0.518672 0.004221 0.537097
v -0.532811 0.065891 0.479742
v -0.554873 0.004221 0.499608
v -0.564977 0.065891 0.441408
v -0.588373 0.004221 0.459685
v -0.594392 0.065891 0.400922
v -0.619006 0.004221 0.417523
v -0.620911 0.065891 0.358482
v -0.646623 0.004221 0.373327
v -0.644405 0.065891 0.314296
v -0.671090 0.004221 0.327311
v -0.664761 0.065891 0.268578
v -0.692286 0.004221 0.279701
v -0.681876 0.065891 0.221554
v -0.710112 0.004221 0.230727
v -0.695669 0.065891 0.173449
v -0.724476 0.004221 0.180631
v -0.706074 0.065891 0.124499
v -0.735311 0.004221 0.129654
v -0.713039 0.065891 0.074941
v -0.742565 0.004221 0.078044
v -0.716530 0.065891 0.025020
v -0.746201 0.004221 0.026056
v -0.716529 0.065891 -0.025024
v -0.746201 0.004221 -0.026060
v -0.713039 0.065891 -0.074946
v -0.742564 0.004221 -0.078049
v -0.706073 0.065891 -0.124501
v -0.735311 0.004221 -0.129658
v -0.695669 0.065891 -0.173452
v -0.724475 0.004221 -0.180634
v -0.681875 0.065891 -0.221556
v -0.710111 0.004221 -0.230732
v -0.664759 0.065891 -0.268582
v -0.692285 0.004221 -0.279704
v -0.644404 0.065891 -0.314299
v -0.671089 0.004221 -0.327313
v -0.620910 0.065891 -0.358485
v -0.646622 0.004221 -0.373330
v -0.594391 0.065891 -0.400925
v -0.619003 0.004221 -0.417526
v -0.564976 0.065891 -0.441411
v -0.588370 0.004221 -0.459689
v -0.532808 0.065891 -0.479745
v -0.554872 0.004221 -0.499611
v -0.498044 0.065891 -0.515744
v -0.518669 0.004221 -0.537100
v -0.460855 0.065891 -0.549230
v -0.479939 0.004221 -0.571973
v -0.421420 0.065891 -0.580040
v -0.438871 0.004221 -0.604058
v -0.379932 0.065891 -0.608023
v -0.395665 0.004221 -0.633201
v -0.336593 0.065891 -0.633045
v -0.350531 0.004221 -0.659259
v -0.291613 0.065891 -0.654983
v -0.303689 0.004221 -0.682104
v -0.245214 0.065891 -0.673729
v -0.255368 0.004221 -0.701628
v -0.197620 0.065891 -0.689192
v -0.205803 0.004221 -0.717731
v -0.149063 0.065891 -0.701299
v -0.155235 0.004221 -0.730340
v -0.099779 0.065891 -0.709989
v -0.103911 0.004221 -0.739389
v -0.050010 0.065891 -0.715220
v -0.052081 0.004221 -0.744836
vt 1.000000 0.500000
vt 1.000000 1.000000
vt 0.988889 1.000000
vt 0.988889 0.500000
vt 0.977778 1.000000
vt 0.977778 0.500000
vt 0.966667 1.000000
vt 0.966667 0.500000
vt 0.955555 1.000000
vt 0.955555 0.500000
vt 0.944444 1.000000
vt 0.944444 0.500000
vt 0.933333 1.000000
vt 0.933333 0.500000
vt 0.922222 1.000000
vt 0.922222 0.500000
vt 0.911111 1.000000
vt 0.911111 0.500000
vt 0.900000 1.000000
vt 0.900000 0.500000
vt 0.888889 1.000000
vt 0.888889 0.500000
vt 0.877777 1.000000
vt 0.877777 0.500000
vt 0.866666 1.000000
vt 0.866666 0.500000
vt 0.855555 1.000000
vt 0.855555 0.500000
vt 0.844444 1.000000
vt 0.844444 0.500000
vt 0.833333 1.000000
vt 0.833333 0.500000
vt 0.822222 1.000000
vt 0.822222 0.500000
vt 0.811111 1.000000
vt 0.811111 0.500000
vt 0.799999 1.000000
vt 0.799999 0.500000
vt 0.788888 1.000000
vt 0.788888 0.500000
vt 0.777777 1.000000
vt 0.777777 0.500000
vt 0.766666 1.000000
vt 0.766666 0.500000
vt 0.755555 1.000000
vt 0.755555 0.500000
vt 0.744444 1.000000
vt 0.744444 0.500000
vt 0.733333 1.000000
vt 0.733333 0.500000
vt 0.722221 1.000000
vt 0.722221 0.500000
vt 0.711110 1.000000
vt 0.711110 0.500000
vt 0.699999 1.000000
vt 0.699999 0.500000
vt 0.688888 1.000000
vt 0.688888 0.500000
vt 0.677777 1.000000
vt 0.677777 0.500000
vt 0.666666 1.000000
vt 0.666666 0.500000
vt 0.655555 1.000000
vt 0.655555 0.500000
vt 0.644444 1.000000
vt 0.644444 0.500000
vt 0.633332 1.000000
vt 0.633332 0.500000
vt 0.622221 1.000000
vt 0.622221 0.500000
vt 0.611110 1.000000
vt 0.611110 0.500000
vt 0.599999 1.000000
vt 0.599999 0.500000
vt 0.588888 1.000000
vt 0.588888 0.500000
vt 0.577777 1.000000
vt 0.577777 0.500000
vt 0.566666 1.000000
vt 0.566666 0.500000
vt 0.555554 1.000000
vt 0.555554 0.500000
vt 0.544443 1.000000
vt 0.544443 0.500000
vt 0.533332 1.000000
vt 0.533332 0.500000
vt 0.522221 1.000000
vt 0.522221 0.500000
vt 0.511110 1.000000
vt 0.511110 0.500000
vt 0.499999 1.000000
vt 0.499999 0.500000
vt 0.488888 1.000000
vt 0.488888 0.500000
vt 0.477776 1.000000
vt 0.477776 0.500000
vt 0.466665 1.000000
vt 0.466665 0.500000
vt 0.455554 1.000000
vt 0.455554 0.500000
vt 0.444443 1.000000
vt 0.444443 0.500000
vt 0.433332 1.000000
vt 0.433332 0.500000
vt 0.422221 1.000000
vt 0.422221 0.500000
vt 0.411110 1.000000
vt 0.411110 0.500000
vt 0.399999 1.000000
vt 0.399999 0.500000
vt 0.388888 1.000000
vt 0.388888 0.500000
vt 0.377777 1.000000
vt 0.377777 0.500000
vt 0.366665 1.000000
vt 0.366665 0.500000
vt 0.355554 1.000000
vt 0.355554 0.500000
vt 0.344443 1.000000
vt 0.344443 0.500000
vt 0.333332 1.000000
vt 0.333332 0.500000
vt 0.322221 1.000000
vt 0.322221 0.500000
vt 0.311110 1.000000
vt 0.311110 0.500000
vt 0.299999 1.000000
vt 0.299999 0.500000
vt 0.288888 1.000000
vt 0.288888 0.500000
vt 0.277777 1.000000
vt 0.277777 0.500000
vt 0.266665 1.000000
vt 0.266665 0.500000
vt 0.255554 1.000000
vt 0.255554 0.500000
vt 0.244443 1.000000
vt 0.244443 0.500000
vt 0.233332 1.000000
vt 0.233332 0.500000
vt 0.222221 1.000000
vt 0.222221 0.500000
vt 0.211110 1.000000
vt 0.211110 0.500000
vt 0.199999 1.000000
vt 0.199999 0.500000
vt 0.188888 1.000000
vt 0.188888 0.500000
vt 0.177777 1.000000
vt 0.177777 0.500000
vt 0.166665 1.000000
vt 0.166665 0.500000
vt 0.155554 1.000000
vt 0.155554 0.500000
vt 0.144443 1.000000
vt 0.144443 0.500000
vt 0.133332 1.000000
vt 0.133332 0.500000
vt 0.122221 1.000000
vt 0.122221 0.500000
vt 0.111110 1.000000
vt 0.111110 0.500000
vt 0.099999 1.000000
vt 0.099999 0.500000
vt 0.088888 1.000000
vt 0.088888 0.500000
vt 0.077777 1.000000
vt 0.077777 0.500000
vt 0.066665 1.000000
vt 0.066665 0.500000
vt 0.055554 1.000000
vt 0.055554 0.500000
vt 0.044443 1.000000
vt 0.044443 0.500000
vt 0.033332 1.000000
vt 0.033332 0.500000
vt 0.022221 1.000000
vt 0.022221 0.500000
vt 0.021747 0.324165
vt 0.332085 0.024474
vt 0.377181 0.453532
vt 0.011110 1.000000
vt 0.011110 0.500000
vt -0.000001 1.000000
vt -0.000001 0.500000
vt 0.652383 0.030749
vt 0.510146 0.241625
vt 0.637328 0.461908
vt 0.283402 0.487664
vt 0.266742 0.489415
vt 0.250000 0.490000
vt 0.233259 0.489415
vt 0.216599 0.487664
vt 0.200102 0.484756
vt 0.183848 0.480703
vt 0.167916 0.475527
vt 0.152384 0.469251
vt 0.137328 0.461908
vt 0.122820 0.453532
vt 0.108932 0.444165
vt 0.095732 0.433851
vt 0.083283 0.422642
vt 0.051031 0.384207
vt 0.071646 0.410592
vt 0.060878 0.397759
vt 0.042154 0.370001
vt 0.034290 0.355210
vt 0.027476 0.339906
vt 0.017129 0.308062
vt 0.013646 0.291676
vt 0.011315 0.275087
vt 0.010146 0.258377
vt 0.010146 0.241625
vt 0.011315 0.224914
vt 0.013646 0.208325
vt 0.017129 0.191939
vt 0.021746 0.175836
vt 0.027476 0.160095
vt 0.034289 0.144791
vt 0.042154 0.130000
vt 0.051031 0.115794
vt 0.060877 0.102242
vt 0.071645 0.089409
vt 0.083282 0.077359
vt 0.095731 0.066150
vt 0.108931 0.055836
vt 0.122819 0.046469
vt 0.137326 0.038093
vt 0.152383 0.030749
vt 0.167915 0.024474
vt 0.183847 0.019297
vt 0.200101 0.015245
vt 0.216598 0.012336
vt 0.233258 0.010585
vt 0.250000 0.010000
vt 0.266741 0.010585
vt 0.283401 0.012336
vt 0.299899 0.015245
vt 0.316153 0.019297
vt 0.347617 0.030749
vt 0.391068 0.055836
vt 0.362673 0.038093
vt 0.377181 0.046468
vt 0.404269 0.066149
vt 0.416718 0.077358
vt 0.428355 0.089409
vt 0.439123 0.102241
vt 0.448969 0.115794
vt 0.457846 0.130000
vt 0.465711 0.144791
vt 0.472524 0.160094
vt 0.478254 0.175836
vt 0.488685 0.224913
vt 0.482871 0.191939
vt 0.486354 0.208324
vt 0.489854 0.241624
vt 0.489854 0.258376
vt 0.488685 0.275087
vt 0.486354 0.291676
vt 0.482871 0.308061
vt 0.478254 0.324164
vt 0.472524 0.339906
vt 0.465711 0.355209
vt 0.457846 0.370000
vt 0.448969 0.384206
vt 0.439123 0.397759
vt 0.428355 0.410591
vt 0.416718 0.422642
vt 0.404269 0.433851
vt 0.391068 0.444164
vt 0.362673 0.461907
vt 0.347617 0.469251
vt 0.332085 0.475526
vt 0.316153 0.480703
vt 0.299899 0.484755
vt 0.733259 0.489415
vt 0.750000 0.490000
vt 0.766742 0.489415
vt 0.783402 0.487664
vt 0.799899 0.484755
vt 0.816153 0.480703
vt 0.832085 0.475526
vt 0.847617 0.469251
vt 0.862673 0.461907
vt 0.877181 0.453532
vt 0.916718 0.422642
vt 0.891068 0.444164
vt 0.904269 0.433851
vt 0.928355 0.410591
vt 0.939123 0.397759
vt 0.948969 0.384206
vt 0.957846 0.370000
vt 0.965711 0.355209
vt 0.972524 0.339906
vt 0.978254 0.324164
vt 0.982871 0.308061
vt 0.986354 0.291676
vt 0.989854 0.241624
vt 0.988685 0.275087
vt 0.989854 0.258376
vt 0.988685 0.224913
vt 0.986354 0.208324
vt 0.982871 0.191939
vt 0.978254 0.175836
vt 0.972524 0.160094
vt 0.948969 0.115794
vt 0.965711 0.144791
vt 0.957846 0.130000
vt 0.939123 0.102241
vt 0.928355 0.089409
vt 0.916718 0.077358
vt 0.904269 0.066149
vt 0.891068 0.055836
vt 0.847617 0.030749
vt 0.877181 0.046468
vt 0.862673 0.038093
vt 0.832085 0.024474
vt 0.816153 0.019297
vt 0.799899 0.015245
vt 0.783401 0.012336
vt 0.766741 0.010585
vt 0.750000 0.010000
vt 0.733258 0.010585
vt 0.716598 0.012336
vt 0.700101 0.015245
vt 0.683847 0.019297
vt 0.667915 0.024474
vt 0.637326 0.038093
vt 0.622819 0.046469
vt 0.608931 0.055836
vt 0.595731 0.066150
vt 0.583282 0.077359
vt 0.571645 0.089409
vt 0.560877 0.102242
vt 0.551031 0.115794
vt 0.542154 0.130000
vt 0.521746 0.175836
vt 0.534289 0.144791
vt 0.527476 0.160095
vt 0.517129 0.191939
vt 0.513646 0.208325
vt 0.511315 0.224914
vt 0.510146 0.258377
vt 0.511315 0.275087
vt 0.513646 0.291676
vt 0.517129 0.308062
vt 0.521747 0.324165
vt 0.527476 0.339906
vt 0.534290 0.355210
vt 0.542154 0.370001
vt 0.551031 0.384207
vt 0.583283 0.422642
vt 0.560878 0.397759
vt 0.571646 0.410592
vt 0.595732 0.433851
vt 0.608932 0.444165
vt 0.622820 0.453532
vt 0.652384 0.469251
vt 0.667916 0.475527
vt 0.683848 0.480703
vt 0.700102 0.484756
vt 0.716599 0.487664
vn 0.0314 0.4335 -0.9006
vn 0.0942 0.4336 -0.8962
vn 0.1565 0.4336 -0.8874
vn 0.2180 0.4336 -0.8744
vn 0.2785 0.4336 -0.8570
vn 0.3376 0.4336 -0.8355
vn 0.3950 0.4336 -0.8099
vn 0.4506 0.4336 -0.7804
vn 0.5039 0.4336 -0.7471
vn 0.5548 0.4335 -0.7101
vn 0.6030 0.4336 -0.6697
vn 0.6482 0.4336 -0.6260
vn 0.6903 0.4336 -0.5792
vn 0.7290 0.4336 -0.5297
vn 0.7642 0.4335 -0.4775
vn 0.7957 0.4335 -0.4231
vn 0.8232 0.4336 -0.3665
vn 0.8468 0.4336 -0.3082
vn 0.8662 0.4336 -0.2484
vn 0.8814 0.4335 -0.1874
vn 0.8924 0.4335 -0.1254
vn 0.8989 0.4336 -0.0629
vn 0.9011 0.4335 0.0000
vn 0.8989 0.4336 0.0629
vn 0.8924 0.4335 0.1254
vn 0.8814 0.4335 0.1874
vn 0.8662 0.4336 0.2484
vn 0.8468 0.4336 0.3082
vn 0.8232 0.4336 0.3665
vn 0.7957 0.4335 0.4231
vn 0.7642 0.4335 0.4775
vn 0.7290 0.4336 0.5297
vn 0.6903 0.4336 0.5792
vn 0.6482 0.4336 0.6260
vn 0.6030 0.4336 0.6697
vn 0.5548 0.4336 0.7101
vn 0.5039 0.4336 0.7471
vn 0.4506 0.4336 0.7804
vn 0.3950 0.4335 0.8099
vn 0.3376 0.4336 0.8355
vn 0.2785 0.4336 0.8570
vn 0.2180 0.4336 0.8744
vn 0.1565 0.4336 0.8874
vn 0.0942 0.4336 0.8962
vn 0.0314 0.4335 0.9006
vn -0.0315 0.4336 0.9006
vn -0.0942 0.4336 0.8962
vn -0.1565 0.4336 0.8874
vn -0.2180 0.4336 0.8744
vn -0.2785 0.4336 0.8570
vn -0.3376 0.4336 0.8355
vn -0.3950 0.4336 0.8099
vn -0.4506 0.4336 0.7804
vn -0.5039 0.4335 0.7471
vn -0.5548 0.4336 0.7101
vn -0.6030 0.4336 0.6697
vn -0.6482 0.4336 0.6260
vn -0.6903 0.4335 0.5792
vn -0.7290 0.4336 0.5297
vn -0.7642 0.4336 0.4775
vn -0.7956 0.4336 0.4230
vn -0.8232 0.4336 0.3665
vn -0.8468 0.4335 0.3082
vn -0.8662 0.4336 0.2484
vn -0.8814 0.4335 0.1874
vn -0.8924 0.4335 0.1254
vn -0.8989 0.4336 0.0629
vn -0.9011 0.4336 -0.0000
vn -0.8989 0.4336 -0.0629
vn -0.8924 0.4335 -0.1254
vn -0.8814 0.4336 -0.1874
vn -0.8662 0.4335 -0.2484
vn -0.8468 0.4335 -0.3082
vn -0.8232 0.4336 -0.3665
vn -0.7956 0.4336 -0.4230
vn -0.7642 0.4336 -0.4775
vn -0.7290 0.4335 -0.5297
vn -0.6903 0.4336 -0.5792
vn -0.6482 0.4336 -0.6260
vn -0.6030 0.4336 -0.6697
vn -0.5548 0.4336 -0.7101
vn -0.5039 0.4336 -0.7471
vn -0.4506 0.4336 -0.7804
vn -0.3950 0.4335 -0.8099
vn -0.3376 0.4336 -0.8355
vn -0.2785 0.4336 -0.8570
vn -0.2180 0.4336 -0.8744
vn -0.1565 0.4336 -0.8874
vn 0.0000 1.0000 0.0000
vn -0.0942 0.4336 -0.8962
vn -0.0314 0.4335 -0.9006
vn -0.0000 -1.0000 -0.0000
usemtl None
s 1
f 1/1/1 2/2/1 3/3/1 4/4/1
f 4/4/2 3/3/2 5/5/2 6/6/2
f 6/6/3 5/5/3 7/7/3 8/8/3
f 8/8/4 7/7/4 9/9/4 10/10/4
f 10/10/5 9/9/5 11/11/5 12/12/5
f 12/12/6 11/11/6 13/13/6 14/14/6
f 14/14/7 13/13/7 15/15/7 16/16/7
f 16/16/8 15/15/8 17/17/8 18/18/8
f 18/18/9 17/17/9 19/19/9 20/20/9
f 20/20/10 19/19/10 21/21/10 22/22/10
f 22/22/11 21/21/11 23/23/11 24/24/11
f 24/24/12 23/23/12 25/25/12 26/26/12
f 26/26/13 25/25/13 27/27/13 28/28/13
f 28/28/14 27/27/14 29/29/14 30/30/14
f 30/30/15 29/29/15 31/31/15 32/32/15
f 32/32/16 31/31/16 33/33/16 34/34/16
f 34/34/17 33/33/17 35/35/17 36/36/17
f 36/36/18 35/35/18 37/37/18 38/38/18
f 38/38/19 37/37/19 39/39/19 40/40/19
f 40/40/20 39/39/20 41/41/20 42/42/20
f 42/42/21 41/41/21 43/43/21 44/44/21
f 44/44/22 43/43/22 45/45/22 46/46/22
f 46/46/23 45/45/23 47/47/23 48/48/23
f 48/48/24 47/47/24 49/49/24 50/50/24
f 50/50/25 49/49/25 51/51/25 52/52/25
f 52/52/26 51/51/26 53/53/26 54/54/26
f 54/54/27 53/53/27 55/55/27 56/56/27
f 56/56/28 55/55/28 57/57/28 58/58/28
f 58/58/29 57/57/29 59/59/29 60/60/29
f 60/60/30 59/59/30 61/61/30 62/62/30
f 62/62/31 61/61/31 63/63/31 64/64/31
f 64/64/32 63/63/32 65/65/32 66/66/32
f 66/66/33 65/65/33 67/67/33 68/68/33
f 68/68/34 67/67/34 69/69/34 70/70/34
f 70/70/35 69/69/35 71/71/35 72/72/35
f 72/72/36 71/71/36 73/73/36 74/74/36
f 74/74/37 73/73/37 75/75/37 76/76/37
f 76/76/38 75/75/38 77/77/38 78/78/38
f 78/78/39 77/77/39 79/79/39 80/80/39
f 80/80/40 79/79/40 81/81/40 82/82/40
f 82/82/41 81/81/41 83/83/41 84/84/41
f 84/84/42 83/83/42 85/85/42 86/86/42
f 86/86/43 85/85/43 87/87/43 88/88/43
f 88/88/44 87/87/44 89/89/44 90/90/44
f 90/90/45 89/89/45 91/91/45 92/92/45
f 92/92/46 91/91/46 93/93/46 94/94/46
f 94/94/47 93/93/47 95/95/47 96/96/47
f 96/96/48 95/95/48 97/97/48 98/98/48
f 98/98/49 97/97/49 99/99/49 100/100/49
f 100/100/50 99/99/50 101/101/50 102/102/50
f 102/102/51 101/101/51 103/103/51 104/104/51
f 104/104/52 103/103/52 105/105/52 106/106/52
f 106/106/53 105/105/53 107/107/53 108/108/53
f 108/108/54 107/107/54 109/109/54 110/110/54
f 110/110/55 109/109/55 111/111/55 112/112/55
f 112/112/56 111/111/56 113/113/56 114/114/56
f 114/114/57 113/113/57 115/115/57 116/116/57
f 116/116/58 115/115/58 117/117/58 118/118/58
f 118/118/59 117/117/59 119/119/59 120/120/59
f 120/120/60 119/119/60 121/121/60 122/122/60
f 122/122/61 121/121/61 123/123/61 124/124/61
f 124/124/62 123/123/62 125/125/62 126/126/62
f 126/126/63 125/125/63 127/127/63 128/128/63
f 128/128/64 127/127/64 129/129/64 130/130/64
f 130/130/65 129/129/65 131/131/65 132/132/65
f 132/132/66 131/131/66 133/133/66 134/134/66
f 134/134/67 133/133/67 135/135/67 136/136/67
f 136/136/68 135/135/68 137/137/68 138/138/68
f 138/138/69 137/137/69 139/139/69 140/140/69
f 140/140/70 139/139/70 141/141/70 142/142/70
f 142/142/71 141/141/71 143/143/71 144/144/71
f 144/144/72 143/143/72 145/145/72 146/146/72
f 146/146/73 145/145/73 147/147/73 148/148/73
f 148/148/74 147/147/74 149/149/74 150/150/74
f 150/150/75 149/149/75 151/151/75 152/152/75
f 152/152/76 151/151/76 153/153/76 154/154/76
f 154/154/77 153/153/77 155/155/77 156/156/77
f 156/156/78 155/155/78 157/157/78 158/158/78
f 158/158/79 157/157/79 159/159/79 160/160/79
f 160/160/80 159/159/80 161/161/80 162/162/80
f 162/162/81 161/161/81 163/163/81 164/164/81
f 164/164/82 163/163/82 165/165/82 166/166/82
f 166/166/83 165/165/83 167/167/83 168/168/83
f 168/168/84 167/167/84 169/169/84 170/170/84
f 170/170/85 169/169/85 171/171/85 172/172/85
f 172/172/86 171/171/86 173/173/86 174/174/86
f 174/174/87 173/173/87 175/175/87 176/176/87
f 176/176/88 175/175/88 177/177/88 178/178/88
f 145/179/89 81/180/89 17/181/89
f 178/178/90 177/177/90 179/182/90 180/183/90
f 180/183/91 179/182/91 2/184/91 1/185/91
f 104/186/92 136/187/92 168/188/92
f 5/189/89 3/190/89 2/191/89
f 2/191/89 179/192/89 177/193/89
f 177/193/89 175/194/89 173/195/89
f 173/195/89 171/196/89 177/193/89
f 171/196/89 169/197/89 177/193/89
f 169/197/89 167/198/89 165/199/89
f 165/199/89 163/200/89 169/197/89
f 163/200/89 161/201/89 169/197/89
f 161/201/89 159/202/89 153/203/89
f 159/202/89 157/204/89 153/203/89
f 157/204/89 155/205/89 153/203/89
f 153/203/89 151/206/89 149/207/89
f 149/207/89 147/208/89 153/203/89
f 147/208/89 145/179/89 153/203/89
f 145/179/89 143/209/89 141/210/89
f 141/210/89 139/211/89 145/179/89
f 139/211/89 137/212/89 145/179/89
f 137/212/89 135/213/89 133/214/89
f 133/214/89 131/215/89 137/212/89
f 131/215/89 129/216/89 137/212/89
f 129/216/89 127/217/89 125/218/89
f 125/218/89 123/219/89 129/216/89
f 123/219/89 121/220/89 129/216/89
f 121/220/89 119/221/89 117/222/89
f 117/222/89 115/223/89 113/224/89
f 113/224/89 111/225/89 109/226/89
f 109/226/89 107/227/89 105/228/89
f 105/228/89 103/229/89 101/230/89
f 101/230/89 99/231/89 97/232/89
f 97/232/89 95/233/89 93/234/89
f 93/234/89 91/235/89 97/232/89
f 91/235/89 89/236/89 97/232/89
f 89/236/89 87/237/89 85/238/89
f 85/238/89 83/239/89 89/236/89
f 83/239/89 81/180/89 89/236/89
f 81/180/89 79/240/89 73/241/89
f 79/240/89 77/242/89 73/241/89
f 77/242/89 75/243/89 73/241/89
f 73/241/89 71/244/89 69/245/89
f 69/245/89 67/246/89 65/247/89
f 65/247/89 63/248/89 61/249/89
f 61/249/89 59/250/89 65/247/89
f 59/250/89 57/251/89 65/247/89
f 57/251/89 55/252/89 49/253/89
f 55/252/89 53/254/89 49/253/89
f 53/254/89 51/255/89 49/253/89
f 49/253/89 47/256/89 45/257/89
f 45/257/89 43/258/89 41/259/89
f 41/259/89 39/260/89 37/261/89
f 37/261/89 35/262/89 41/259/89
f 35/262/89 33/263/89 41/259/89
f 33/263/89 31/264/89 29/265/89
f 29/265/89 27/266/89 25/267/89
f 25/267/89 23/268/89 17/181/89
f 23/268/89 21/269/89 17/181/89
f 21/269/89 19/270/89 17/181/89
f 17/181/89 15/271/89 13/272/89
f 13/272/89 11/273/89 17/181/89
f 11/273/89 9/274/89 17/181/89
f 9/274/89 7/275/89 5/189/89
f 5/189/89 2/191/89 177/193/89
f 121/220/89 117/222/89 129/216/89
f 117/222/89 113/224/89 129/216/89
f 113/224/89 109/226/89 105/228/89
f 105/228/89 101/230/89 113/224/89
f 101/230/89 97/232/89 113/224/89
f 73/241/89 69/245/89 65/247/89
f 49/253/89 45/257/89 41/259/89
f 33/263/89 29/265/89 25/267/89
f 9/274/89 5/189/89 17/181/89
f 5/189/89 177/193/89 17/181/89
f 177/193/89 169/197/89 161/201/89
f 161/201/89 153/203/89 177/193/89
f 153/203/89 145/179/89 177/193/89
f 145/179/89 137/212/89 129/216/89
f 97/232/89 89/236/89 81/180/89
f 81/180/89 73/241/89 65/247/89
f 65/247/89 57/251/89 49/253/89
f 49/253/89 41/259/89 33/263/89
f 33/263/89 25/267/89 49/253/89
f 25/267/89 17/181/89 49/253/89
f 145/179/89 129/216/89 113/224/89
f 113/224/89 97/232/89 145/179/89
f 97/232/89 81/180/89 145/179/89
f 81/180/89 65/247/89 49/253/89
f 17/181/89 177/193/89 145/179/89
f 81/180/89 49/253/89 17/181/89
f 180/276/92 1/277/92 4/278/92
f 4/278/92 6/279/92 180/276/92
f 6/279/92 8/280/92 180/276/92
f 8/280/92 10/281/92 12/282/92
f 12/282/92 14/283/92 16/284/92
f 16/284/92 18/285/92 24/286/92
f 18/285/92 20/287/92 24/286/92
f 20/287/92 22/288/92 24/286/92
f 24/286/92 26/289/92 28/290/92
f 28/290/92 30/291/92 24/286/92
f 30/291/92 32/292/92 24/286/92
f 32/292/92 34/293/92 36/294/92
f 36/294/92 38/295/92 40/296/92
f 40/296/92 42/297/92 48/298/92
f 42/297/92 44/299/92 48/298/92
f 44/299/92 46/300/92 48/298/92
f 48/298/92 50/301/92 52/302/92
f 52/302/92 54/303/92 56/304/92
f 56/304/92 58/305/92 64/306/92
f 58/305/92 60/307/92 64/306/92
f 60/307/92 62/308/92 64/306/92
f 64/306/92 66/309/92 68/310/92
f 68/310/92 70/311/92 64/306/92
f 70/311/92 72/312/92 64/306/92
f 72/312/92 74/313/92 80/314/92
f 74/313/92 76/315/92 80/314/92
f 76/315/92 78/316/92 80/314/92
f 80/314/92 82/317/92 84/318/92
f 84/318/92 86/319/92 88/320/92
f 88/320/92 90/321/92 92/322/92
f 92/322/92 94/323/92 88/320/92
f 94/323/92 96/324/92 88/320/92
f 96/324/92 98/325/92 100/326/92
f 100/326/92 102/327/92 104/186/92
f 104/186/92 106/328/92 108/329/92
f 108/329/92 110/330/92 104/186/92
f 110/330/92 112/331/92 104/186/92
f 112/331/92 114/332/92 116/333/92
f 116/333/92 118/334/92 112/331/92
f 118/334/92 120/335/92 112/331/92
f 120/335/92 122/336/92 128/337/92
f 122/336/92 124/338/92 128/337/92
f 124/338/92 126/339/92 128/337/92
f 128/337/92 130/340/92 132/341/92
f 132/341/92 134/342/92 136/187/92
f 136/187/92 138/343/92 140/344/92
f 140/344/92 142/345/92 136/187/92
f 142/345/92 144/346/92 136/187/92
f 144/346/92 146/347/92 148/348/92
f 148/348/92 150/349/92 152/350/92
f 152/350/92 154/351/92 160/352/92
f 154/351/92 156/353/92 160/352/92
f 156/353/92 158/354/92 160/352/92
f 160/352/92 162/355/92 168/188/92
f 162/355/92 164/356/92 168/188/92
f 164/356/92 166/357/92 168/188/92
f 168/188/92 170/358/92 172/359/92
f 172/359/92 174/360/92 176/361/92
f 176/361/92 178/362/92 8/280/92
f 178/362/92 180/276/92 8/280/92
f 8/280/92 12/282/92 24/286/92
f 12/282/92 16/284/92 24/286/92
f 32/292/92 36/294/92 24/286/92
f 36/294/92 40/296/92 24/286/92
f 48/298/92 52/302/92 40/296/92
f 52/302/92 56/304/92 40/296/92
f 80/314/92 84/318/92 88/320/92
f 96/324/92 100/326/92 104/186/92
f 128/337/92 132/341/92 136/187/92
f 144/346/92 148/348/92 136/187/92
f 148/348/92 152/350/92 136/187/92
f 168/188/92 172/359/92 8/280/92
f 172/359/92 176/361/92 8/280/92
f 56/304/92 64/306/92 72/312/92
f 72/312/92 80/314/92 104/186/92
f 80/314/92 88/320/92 104/186/92
f 88/320/92 96/324/92 104/186/92
f 104/186/92 112/331/92 120/335/92
f 120/335/92 128/337/92 104/186/92
f 128/337/92 136/187/92 104/186/92
f 152/350/92 160/352/92 168/188/92
f 8/280/92 24/286/92 40/296/92
f 40/296/92 56/304/92 72/312/92
f 136/187/92 152/350/92 168/188/92
f 168/188/92 8/280/92 104/186/92
f 8/280/92 40/296/92 104/186/92
f 40/296/92 72/312/92 104/186/92
